<svg xmlns="http://www.w3.org/2000/svg" xmlns:xlink="http://www.w3.org/1999/xlink" width="500" zoomAndPan="magnify" viewBox="0 0 375 374.999991" height="500" preserveAspectRatio="xMidYMid meet" version="1.0"><defs><clipPath id="d4f2b18a76"><path d="M 43.078125 99.546875 L 162.917969 99.546875 L 162.917969 200.464844 L 43.078125 200.464844 Z M 43.078125 99.546875 " clip-rule="nonzero"/></clipPath><clipPath id="1026bad432"><path d="M 130.746094 99.546875 L 43.078125 99.546875 L 75.0625 200.464844 L 162.734375 200.464844 Z M 130.746094 99.546875 " clip-rule="nonzero"/></clipPath><clipPath id="6cf12d4cb3"><path d="M 212.136719 99.546875 L 331.980469 99.546875 L 331.980469 200.464844 L 212.136719 200.464844 Z M 212.136719 99.546875 " clip-rule="nonzero"/></clipPath><clipPath id="11df72c998"><path d="M 246.296875 99.546875 L 331.921875 99.546875 L 297.765625 200.464844 L 212.136719 200.464844 Z M 246.296875 99.546875 " clip-rule="nonzero"/></clipPath><clipPath id="6ba30e2e6f"><path d="M 78.230469 208.277344 L 162.988281 208.277344 L 162.988281 275.453125 L 78.230469 275.453125 Z M 78.230469 208.277344 " clip-rule="nonzero"/></clipPath><clipPath id="ef16b02574"><path d="M 97.628906 208.277344 L 162.734375 208.277344 L 143.335938 275.453125 L 78.230469 275.453125 Z M 97.628906 208.277344 " clip-rule="nonzero"/></clipPath><clipPath id="4819e370d6"><path d="M 212.136719 208.277344 L 296.632812 208.277344 L 296.632812 275.453125 L 212.136719 275.453125 Z M 212.136719 208.277344 " clip-rule="nonzero"/></clipPath><clipPath id="c2c4df018d"><path d="M 273.449219 208.277344 L 212.136719 208.277344 L 235.273438 275.453125 L 296.582031 275.453125 Z M 273.449219 208.277344 " clip-rule="nonzero"/></clipPath><clipPath id="bd5f4bd1b4"><path d="M 170.226562 144.625 L 204.648438 144.625 L 204.648438 178.160156 L 170.226562 178.160156 Z M 170.226562 144.625 " clip-rule="nonzero"/></clipPath><clipPath id="7d2da8362e"><path d="M 170.226562 186.25 L 204.648438 186.25 L 204.648438 219.882812 L 170.226562 219.882812 Z M 170.226562 186.25 " clip-rule="nonzero"/></clipPath><clipPath id="d612b51439"><path d="M 170.226562 227.960938 L 204.648438 227.960938 L 204.648438 261.59375 L 170.226562 261.59375 Z M 170.226562 227.960938 " clip-rule="nonzero"/></clipPath></defs><g clip-path="url(#d4f2b18a76)"><g clip-path="url(#1026bad432)"><path fill="#1d63ed" d="M 43.078125 99.546875 L 162.917969 99.546875 L 162.917969 200.464844 L 43.078125 200.464844 Z M 43.078125 99.546875 " fill-opacity="1" fill-rule="nonzero"/></g></g><g clip-path="url(#6cf12d4cb3)"><g clip-path="url(#11df72c998)"><path fill="#1d63ed" d="M 212.136719 99.546875 L 331.980469 99.546875 L 331.980469 200.464844 L 212.136719 200.464844 Z M 212.136719 99.546875 " fill-opacity="1" fill-rule="nonzero"/></g></g><g clip-path="url(#6ba30e2e6f)"><g clip-path="url(#ef16b02574)"><path fill="#1d63ed" d="M 78.230469 208.277344 L 162.726562 208.277344 L 162.726562 275.453125 L 78.230469 275.453125 Z M 78.230469 208.277344 " fill-opacity="1" fill-rule="nonzero"/></g></g><g clip-path="url(#4819e370d6)"><g clip-path="url(#c2c4df018d)"><path fill="#1d63ed" d="M 212.136719 208.277344 L 296.632812 208.277344 L 296.632812 275.453125 L 212.136719 275.453125 Z M 212.136719 208.277344 " fill-opacity="1" fill-rule="nonzero"/></g></g><g clip-path="url(#bd5f4bd1b4)"><path fill="#1d63ed" d="M 170.226562 144.625 L 204.679688 144.625 L 204.679688 178.160156 L 170.226562 178.160156 Z M 170.226562 144.625 " fill-opacity="1" fill-rule="nonzero"/></g><g clip-path="url(#7d2da8362e)"><path fill="#1d63ed" d="M 170.226562 186.25 L 204.648438 186.25 L 204.648438 219.882812 L 170.226562 219.882812 Z M 170.226562 186.25 " fill-opacity="1" fill-rule="nonzero"/></g><g clip-path="url(#d612b51439)"><path fill="#1d63ed" d="M 170.226562 227.960938 L 204.648438 227.960938 L 204.648438 261.59375 L 170.226562 261.59375 Z M 170.226562 227.960938 " fill-opacity="1" fill-rule="nonzero"/></g></svg>