<svg xmlns="http://www.w3.org/2000/svg" xmlns:xlink="http://www.w3.org/1999/xlink" width="500" zoomAndPan="magnify" viewBox="0 0 375 374.999991" height="500" preserveAspectRatio="xMidYMid meet" version="1.0"><defs><g/><clipPath id="e34065bbae"><path d="M 39.3125 159.609375 L 73.78125 159.609375 L 73.78125 188.632812 L 39.3125 188.632812 Z M 39.3125 159.609375 " clip-rule="nonzero"/></clipPath><clipPath id="b023ebb94d"><path d="M 64.527344 159.609375 L 39.3125 159.609375 L 48.511719 188.632812 L 73.730469 188.632812 Z M 64.527344 159.609375 " clip-rule="nonzero"/></clipPath><clipPath id="8b448411be"><path d="M 87.9375 159.609375 L 122.40625 159.609375 L 122.40625 188.632812 L 87.9375 188.632812 Z M 87.9375 159.609375 " clip-rule="nonzero"/></clipPath><clipPath id="5b0ac7fdb4"><path d="M 97.761719 159.609375 L 122.390625 159.609375 L 112.566406 188.632812 L 87.9375 188.632812 Z M 97.761719 159.609375 " clip-rule="nonzero"/></clipPath><clipPath id="5f38ccd984"><path d="M 49.425781 190.878906 L 73.800781 190.878906 L 73.800781 210.203125 L 49.425781 210.203125 Z M 49.425781 190.878906 " clip-rule="nonzero"/></clipPath><clipPath id="c7be18b7a0"><path d="M 55.003906 190.878906 L 73.730469 190.878906 L 68.148438 210.203125 L 49.425781 210.203125 Z M 55.003906 190.878906 " clip-rule="nonzero"/></clipPath><clipPath id="ac345b4f9b"><path d="M 87.9375 190.878906 L 112.242188 190.878906 L 112.242188 210.203125 L 87.9375 210.203125 Z M 87.9375 190.878906 " clip-rule="nonzero"/></clipPath><clipPath id="b2cbfea11d"><path d="M 105.570312 190.878906 L 87.9375 190.878906 L 94.59375 210.203125 L 112.226562 210.203125 Z M 105.570312 190.878906 " clip-rule="nonzero"/></clipPath><clipPath id="849c7c6eef"><path d="M 75.882812 172.574219 L 85.785156 172.574219 L 85.785156 182.21875 L 75.882812 182.21875 Z M 75.882812 172.574219 " clip-rule="nonzero"/></clipPath><clipPath id="8c9fc6ff66"><path d="M 75.882812 184.546875 L 85.785156 184.546875 L 85.785156 194.21875 L 75.882812 194.21875 Z M 75.882812 184.546875 " clip-rule="nonzero"/></clipPath><clipPath id="e5f6dd85bf"><path d="M 75.882812 196.542969 L 85.785156 196.542969 L 85.785156 206.214844 L 75.882812 206.214844 Z M 75.882812 196.542969 " clip-rule="nonzero"/></clipPath></defs><g clip-path="url(#e34065bbae)"><g clip-path="url(#b023ebb94d)"><path fill="#38b6ff" d="M 39.3125 159.609375 L 73.78125 159.609375 L 73.78125 188.632812 L 39.3125 188.632812 Z M 39.3125 159.609375 " fill-opacity="1" fill-rule="nonzero"/></g></g><g clip-path="url(#8b448411be)"><g clip-path="url(#5b0ac7fdb4)"><path fill="#38b6ff" d="M 87.9375 159.609375 L 122.40625 159.609375 L 122.40625 188.632812 L 87.9375 188.632812 Z M 87.9375 159.609375 " fill-opacity="1" fill-rule="nonzero"/></g></g><g clip-path="url(#5f38ccd984)"><g clip-path="url(#c7be18b7a0)"><path fill="#38b6ff" d="M 49.425781 190.878906 L 73.726562 190.878906 L 73.726562 210.203125 L 49.425781 210.203125 Z M 49.425781 190.878906 " fill-opacity="1" fill-rule="nonzero"/></g></g><g clip-path="url(#ac345b4f9b)"><g clip-path="url(#b2cbfea11d)"><path fill="#38b6ff" d="M 87.9375 190.878906 L 112.242188 190.878906 L 112.242188 210.203125 L 87.9375 210.203125 Z M 87.9375 190.878906 " fill-opacity="1" fill-rule="nonzero"/></g></g><g clip-path="url(#849c7c6eef)"><path fill="#38b6ff" d="M 75.882812 172.574219 L 85.792969 172.574219 L 85.792969 182.21875 L 75.882812 182.21875 Z M 75.882812 172.574219 " fill-opacity="1" fill-rule="nonzero"/></g><g clip-path="url(#8c9fc6ff66)"><path fill="#38b6ff" d="M 75.882812 184.546875 L 85.785156 184.546875 L 85.785156 194.21875 L 75.882812 194.21875 Z M 75.882812 184.546875 " fill-opacity="1" fill-rule="nonzero"/></g><g clip-path="url(#e5f6dd85bf)"><path fill="#38b6ff" d="M 75.882812 196.542969 L 85.785156 196.542969 L 85.785156 206.214844 L 75.882812 206.214844 Z M 75.882812 196.542969 " fill-opacity="1" fill-rule="nonzero"/></g><g fill="#055acb" fill-opacity="1"><g transform="translate(132.252754, 202.907406)"><g><path d="M 5.25 0.21875 C 4.71875 0.21875 4.265625 0.0351562 3.890625 -0.328125 C 3.523438 -0.703125 3.34375 -1.15625 3.34375 -1.6875 L 3.34375 -19.859375 C 3.34375 -20.390625 3.523438 -20.847656 3.890625 -21.234375 C 4.265625 -21.617188 4.71875 -21.8125 5.25 -21.8125 C 5.789062 -21.8125 6.25 -21.617188 6.625 -21.234375 C 7.007812 -20.847656 7.203125 -20.390625 7.203125 -19.859375 L 7.203125 -18.125 C 7.992188 -19.25 8.945312 -20.175781 10.0625 -20.90625 C 11.175781 -21.644531 12.617188 -22.015625 14.390625 -22.015625 C 15.972656 -22.015625 17.328125 -21.59375 18.453125 -20.75 C 19.585938 -19.90625 20.394531 -18.875 20.875 -17.65625 C 22.625 -20.5625 25.222656 -22.015625 28.671875 -22.015625 C 30.242188 -22.015625 31.5625 -21.617188 32.625 -20.828125 C 33.6875 -20.035156 34.46875 -19.019531 34.96875 -17.78125 C 35.476562 -16.539062 35.734375 -15.242188 35.734375 -13.890625 L 35.734375 -1.6875 C 35.734375 -1.15625 35.539062 -0.703125 35.15625 -0.328125 C 34.78125 0.0351562 34.328125 0.21875 33.796875 0.21875 C 33.253906 0.21875 32.800781 0.0351562 32.4375 -0.328125 C 32.070312 -0.703125 31.890625 -1.15625 31.890625 -1.6875 L 31.890625 -13.125 C 31.890625 -14.957031 31.5625 -16.304688 30.90625 -17.171875 C 30.257812 -18.035156 29.144531 -18.46875 27.5625 -18.46875 C 26.125 -18.46875 24.929688 -18.09375 23.984375 -17.34375 C 23.035156 -16.59375 22.195312 -15.609375 21.46875 -14.390625 L 21.46875 -1.6875 C 21.46875 -1.15625 21.273438 -0.703125 20.890625 -0.328125 C 20.515625 0.0351562 20.054688 0.21875 19.515625 0.21875 C 18.984375 0.21875 18.53125 0.0351562 18.15625 -0.328125 C 17.789062 -0.703125 17.609375 -1.15625 17.609375 -1.6875 L 17.609375 -13.125 C 17.609375 -14.957031 17.285156 -16.304688 16.640625 -17.171875 C 15.992188 -18.035156 14.878906 -18.46875 13.296875 -18.46875 C 11.859375 -18.46875 10.664062 -18.09375 9.71875 -17.34375 C 8.769531 -16.59375 7.929688 -15.609375 7.203125 -14.390625 L 7.203125 -1.6875 C 7.203125 -1.15625 7.007812 -0.703125 6.625 -0.328125 C 6.25 0.0351562 5.789062 0.21875 5.25 0.21875 Z M 5.25 0.21875 "/></g></g></g><g fill="#055acb" fill-opacity="1"><g transform="translate(171.124399, 202.907406)"><g><path d="M 12.875 0.421875 C 10.695312 0.421875 8.789062 -0.0390625 7.15625 -0.96875 C 5.519531 -1.90625 4.253906 -3.226562 3.359375 -4.9375 C 2.472656 -6.644531 2.03125 -8.597656 2.03125 -10.796875 C 2.03125 -12.992188 2.472656 -14.945312 3.359375 -16.65625 C 4.253906 -18.363281 5.519531 -19.679688 7.15625 -20.609375 C 8.789062 -21.546875 10.695312 -22.015625 12.875 -22.015625 C 15.019531 -22.015625 16.910156 -21.546875 18.546875 -20.609375 C 20.179688 -19.679688 21.453125 -18.363281 22.359375 -16.65625 C 23.265625 -14.945312 23.71875 -12.992188 23.71875 -10.796875 C 23.71875 -8.597656 23.265625 -6.644531 22.359375 -4.9375 C 21.453125 -3.226562 20.179688 -1.90625 18.546875 -0.96875 C 16.910156 -0.0390625 15.019531 0.421875 12.875 0.421875 Z M 12.875 -3.09375 C 14.03125 -3.09375 15.132812 -3.359375 16.1875 -3.890625 C 17.25 -4.429688 18.125 -5.28125 18.8125 -6.4375 C 19.507812 -7.59375 19.859375 -9.0625 19.859375 -10.84375 C 19.859375 -12.59375 19.507812 -14.046875 18.8125 -15.203125 C 18.125 -16.359375 17.25 -17.195312 16.1875 -17.71875 C 15.132812 -18.238281 14.03125 -18.5 12.875 -18.5 C 11.6875 -18.5 10.5625 -18.238281 9.5 -17.71875 C 8.445312 -17.195312 7.582031 -16.359375 6.90625 -15.203125 C 6.226562 -14.046875 5.890625 -12.59375 5.890625 -10.84375 C 5.890625 -9.0625 6.226562 -7.59375 6.90625 -6.4375 C 7.582031 -5.28125 8.445312 -4.429688 9.5 -3.890625 C 10.5625 -3.359375 11.6875 -3.09375 12.875 -3.09375 Z M 12.875 -3.09375 "/></g></g></g><g fill="#055acb" fill-opacity="1"><g transform="translate(196.869464, 202.907406)"><g><path d="M 5.25 0.21875 C 4.71875 0.21875 4.265625 0.0351562 3.890625 -0.328125 C 3.523438 -0.703125 3.34375 -1.15625 3.34375 -1.6875 L 3.34375 -19.859375 C 3.34375 -20.390625 3.523438 -20.847656 3.890625 -21.234375 C 4.265625 -21.617188 4.71875 -21.8125 5.25 -21.8125 C 5.789062 -21.8125 6.25 -21.617188 6.625 -21.234375 C 7.007812 -20.847656 7.203125 -20.390625 7.203125 -19.859375 L 7.203125 -18.03125 C 9.171875 -20.6875 11.382812 -22.015625 13.84375 -22.015625 L 14.0625 -22.015625 C 14.59375 -22.015625 15.035156 -21.832031 15.390625 -21.46875 C 15.742188 -21.101562 15.921875 -20.648438 15.921875 -20.109375 C 15.921875 -19.578125 15.738281 -19.140625 15.375 -18.796875 C 15.007812 -18.460938 14.539062 -18.296875 13.96875 -18.296875 L 13.765625 -18.296875 C 12.410156 -18.296875 11.164062 -17.960938 10.03125 -17.296875 C 8.90625 -16.628906 7.960938 -15.71875 7.203125 -14.5625 L 7.203125 -1.6875 C 7.203125 -1.15625 7.007812 -0.703125 6.625 -0.328125 C 6.25 0.0351562 5.789062 0.21875 5.25 0.21875 Z M 5.25 0.21875 "/></g></g></g><g fill="#055acb" fill-opacity="1"><g transform="translate(213.087153, 202.907406)"><g><path d="M 5.25 9.953125 C 4.71875 9.953125 4.265625 9.757812 3.890625 9.375 C 3.523438 9 3.34375 8.539062 3.34375 8 L 3.34375 -19.90625 C 3.34375 -20.4375 3.523438 -20.882812 3.890625 -21.25 C 4.265625 -21.625 4.71875 -21.8125 5.25 -21.8125 C 5.789062 -21.8125 6.25 -21.625 6.625 -21.25 C 7.007812 -20.882812 7.203125 -20.4375 7.203125 -19.90625 L 7.203125 -18.796875 C 9.265625 -20.941406 11.675781 -22.015625 14.4375 -22.015625 C 16.1875 -22.015625 17.84375 -21.566406 19.40625 -20.671875 C 20.976562 -19.785156 22.25 -18.488281 23.21875 -16.78125 C 24.195312 -15.082031 24.6875 -13.085938 24.6875 -10.796875 C 24.6875 -8.515625 24.195312 -6.519531 23.21875 -4.8125 C 22.25 -3.101562 20.976562 -1.800781 19.40625 -0.90625 C 17.84375 -0.0195312 16.1875 0.421875 14.4375 0.421875 C 11.675781 0.421875 9.265625 -0.648438 7.203125 -2.796875 L 7.203125 8 C 7.203125 8.5625 7.015625 9.023438 6.640625 9.390625 C 6.273438 9.765625 5.8125 9.953125 5.25 9.953125 Z M 13.890625 -3.171875 C 15.972656 -3.171875 17.648438 -3.832031 18.921875 -5.15625 C 20.191406 -6.488281 20.828125 -8.367188 20.828125 -10.796875 C 20.828125 -13.222656 20.191406 -15.097656 18.921875 -16.421875 C 17.648438 -17.753906 15.972656 -18.421875 13.890625 -18.421875 C 12.585938 -18.421875 11.363281 -18.128906 10.21875 -17.546875 C 9.082031 -16.972656 8.078125 -16.207031 7.203125 -15.25 L 7.203125 -6.359375 C 8.078125 -5.390625 9.082031 -4.613281 10.21875 -4.03125 C 11.363281 -3.457031 12.585938 -3.171875 13.890625 -3.171875 Z M 13.890625 -3.171875 "/></g></g></g><g fill="#055acb" fill-opacity="1"><g transform="translate(239.806124, 202.907406)"><g><path d="M 5.25 0.21875 C 4.71875 0.21875 4.265625 0.0351562 3.890625 -0.328125 C 3.523438 -0.703125 3.34375 -1.15625 3.34375 -1.6875 L 3.34375 -29.171875 C 3.34375 -29.710938 3.523438 -30.171875 3.890625 -30.546875 C 4.265625 -30.929688 4.71875 -31.125 5.25 -31.125 C 5.789062 -31.125 6.25 -30.929688 6.625 -30.546875 C 7.007812 -30.171875 7.203125 -29.710938 7.203125 -29.171875 L 7.203125 -18.125 C 8.273438 -19.3125 9.429688 -20.253906 10.671875 -20.953125 C 11.910156 -21.660156 13.378906 -22.015625 15.078125 -22.015625 C 16.628906 -22.015625 17.972656 -21.644531 19.109375 -20.90625 C 20.253906 -20.175781 21.128906 -19.175781 21.734375 -17.90625 C 22.347656 -16.632812 22.65625 -15.238281 22.65625 -13.71875 L 22.65625 -1.6875 C 22.65625 -1.15625 22.460938 -0.703125 22.078125 -0.328125 C 21.703125 0.0351562 21.242188 0.21875 20.703125 0.21875 C 20.171875 0.21875 19.71875 0.0351562 19.34375 -0.328125 C 18.976562 -0.703125 18.796875 -1.15625 18.796875 -1.6875 L 18.796875 -13.296875 C 18.796875 -16.742188 17.242188 -18.46875 14.140625 -18.46875 C 12.734375 -18.46875 11.472656 -18.097656 10.359375 -17.359375 C 9.242188 -16.628906 8.191406 -15.640625 7.203125 -14.390625 L 7.203125 -1.6875 C 7.203125 -1.15625 7.007812 -0.703125 6.625 -0.328125 C 6.25 0.0351562 5.789062 0.21875 5.25 0.21875 Z M 5.25 0.21875 "/></g></g></g><g fill="#055acb" fill-opacity="1"><g transform="translate(265.593523, 202.907406)"><g><path d="M 13 0.421875 C 9.550781 0.421875 6.859375 -0.554688 4.921875 -2.515625 C 2.992188 -4.484375 2.03125 -7.242188 2.03125 -10.796875 C 2.03125 -12.796875 2.394531 -14.644531 3.125 -16.34375 C 3.863281 -18.039062 4.992188 -19.410156 6.515625 -20.453125 C 8.046875 -21.492188 9.925781 -22.015625 12.15625 -22.015625 C 14.238281 -22.015625 16.039062 -21.523438 17.5625 -20.546875 C 19.09375 -19.578125 20.253906 -18.28125 21.046875 -16.65625 C 21.835938 -15.039062 22.234375 -13.269531 22.234375 -11.34375 C 22.234375 -10.8125 22.054688 -10.359375 21.703125 -9.984375 C 21.347656 -9.617188 20.875 -9.4375 20.28125 -9.4375 L 5.921875 -9.4375 C 6.148438 -7.46875 6.882812 -5.929688 8.125 -4.828125 C 9.375 -3.722656 11.113281 -3.171875 13.34375 -3.171875 C 14.519531 -3.171875 15.550781 -3.285156 16.4375 -3.515625 C 17.332031 -3.742188 18.207031 -4.066406 19.0625 -4.484375 C 19.28125 -4.597656 19.53125 -4.65625 19.8125 -4.65625 C 20.269531 -4.65625 20.664062 -4.5 21 -4.1875 C 21.34375 -3.875 21.515625 -3.476562 21.515625 -3 C 21.515625 -2.382812 21.144531 -1.863281 20.40625 -1.4375 C 19.3125 -0.820312 18.226562 -0.359375 17.15625 -0.046875 C 16.082031 0.265625 14.695312 0.421875 13 0.421875 Z M 18.421875 -12.578125 C 18.335938 -13.960938 17.976562 -15.117188 17.34375 -16.046875 C 16.707031 -16.984375 15.921875 -17.671875 14.984375 -18.109375 C 14.054688 -18.546875 13.113281 -18.765625 12.15625 -18.765625 C 11.195312 -18.765625 10.25 -18.546875 9.3125 -18.109375 C 8.382812 -17.671875 7.609375 -16.984375 6.984375 -16.046875 C 6.367188 -15.117188 6.015625 -13.960938 5.921875 -12.578125 Z M 18.421875 -12.578125 "/></g></g></g><g fill="#055acb" fill-opacity="1"><g transform="translate(289.56014, 202.907406)"><g><path d="M 10.71875 0.421875 C 9.164062 0.421875 7.816406 0.0546875 6.671875 -0.671875 C 5.523438 -1.410156 4.648438 -2.414062 4.046875 -3.6875 C 3.441406 -4.957031 3.140625 -6.351562 3.140625 -7.875 L 3.140625 -19.90625 C 3.140625 -20.4375 3.328125 -20.882812 3.703125 -21.25 C 4.085938 -21.625 4.546875 -21.8125 5.078125 -21.8125 C 5.617188 -21.8125 6.070312 -21.625 6.4375 -21.25 C 6.800781 -20.882812 6.984375 -20.4375 6.984375 -19.90625 L 6.984375 -8.296875 C 6.984375 -4.859375 8.535156 -3.140625 11.640625 -3.140625 C 13.054688 -3.140625 14.320312 -3.503906 15.4375 -4.234375 C 16.550781 -4.960938 17.601562 -5.953125 18.59375 -7.203125 L 18.59375 -19.90625 C 18.59375 -20.4375 18.78125 -20.882812 19.15625 -21.25 C 19.539062 -21.625 20 -21.8125 20.53125 -21.8125 C 21.070312 -21.8125 21.523438 -21.625 21.890625 -21.25 C 22.253906 -20.882812 22.4375 -20.4375 22.4375 -19.90625 L 22.4375 -1.734375 C 22.4375 -1.203125 22.253906 -0.742188 21.890625 -0.359375 C 21.523438 0.0234375 21.070312 0.21875 20.53125 0.21875 C 20 0.21875 19.539062 0.0234375 19.15625 -0.359375 C 18.78125 -0.742188 18.59375 -1.203125 18.59375 -1.734375 L 18.59375 -3.46875 C 17.519531 -2.28125 16.359375 -1.332031 15.109375 -0.625 C 13.867188 0.0703125 12.40625 0.421875 10.71875 0.421875 Z M 10.71875 0.421875 "/></g></g></g><g fill="#055acb" fill-opacity="1"><g transform="translate(315.34754, 202.907406)"><g><path d="M 10.328125 0.421875 C 7.503906 0.421875 4.9375 -0.210938 2.625 -1.484375 C 2.144531 -1.816406 1.90625 -2.28125 1.90625 -2.875 C 1.90625 -3.332031 2.0625 -3.726562 2.375 -4.0625 C 2.6875 -4.40625 3.082031 -4.578125 3.5625 -4.578125 C 3.8125 -4.578125 4.0625 -4.519531 4.3125 -4.40625 C 5.21875 -4.007812 6.125 -3.695312 7.03125 -3.46875 C 7.9375 -3.25 8.953125 -3.140625 10.078125 -3.140625 C 13.210938 -3.140625 14.78125 -4.140625 14.78125 -6.140625 C 14.78125 -6.785156 14.421875 -7.273438 13.703125 -7.609375 C 12.984375 -7.953125 11.800781 -8.335938 10.15625 -8.765625 C 8.5 -9.160156 7.125 -9.566406 6.03125 -9.984375 C 4.945312 -10.410156 4.015625 -11.054688 3.234375 -11.921875 C 2.460938 -12.785156 2.078125 -13.921875 2.078125 -15.328125 C 2.078125 -17.304688 2.789062 -18.914062 4.21875 -20.15625 C 5.644531 -21.394531 7.679688 -22.015625 10.328125 -22.015625 C 12.503906 -22.015625 14.550781 -21.660156 16.46875 -20.953125 C 16.863281 -20.847656 17.164062 -20.640625 17.375 -20.328125 C 17.59375 -20.015625 17.703125 -19.6875 17.703125 -19.34375 C 17.703125 -18.894531 17.535156 -18.5 17.203125 -18.15625 C 16.878906 -17.820312 16.476562 -17.65625 16 -17.65625 C 15.863281 -17.65625 15.679688 -17.679688 15.453125 -17.734375 C 13.816406 -18.242188 12.207031 -18.5 10.625 -18.5 C 9.101562 -18.5 7.910156 -18.222656 7.046875 -17.671875 C 6.191406 -17.128906 5.765625 -16.421875 5.765625 -15.546875 C 5.765625 -14.691406 6.15625 -14.066406 6.9375 -13.671875 C 7.726562 -13.273438 8.957031 -12.894531 10.625 -12.53125 C 12.289062 -12.113281 13.644531 -11.695312 14.6875 -11.28125 C 15.738281 -10.875 16.632812 -10.234375 17.375 -9.359375 C 18.125 -8.484375 18.5 -7.3125 18.5 -5.84375 C 18.5 -4.039062 17.785156 -2.546875 16.359375 -1.359375 C 14.941406 -0.171875 12.929688 0.421875 10.328125 0.421875 Z M 10.328125 0.421875 "/></g></g></g></svg>