<svg xmlns="http://www.w3.org/2000/svg" xmlns:xlink="http://www.w3.org/1999/xlink" width="500" zoomAndPan="magnify" viewBox="0 0 375 374.999991" height="500" preserveAspectRatio="xMidYMid meet" version="1.0"><defs><clipPath id="aa584da460"><path d="M 43.078125 99.546875 L 162.917969 99.546875 L 162.917969 200.464844 L 43.078125 200.464844 Z M 43.078125 99.546875 " clip-rule="nonzero"/></clipPath><clipPath id="44fc67b7cd"><path d="M 130.746094 99.546875 L 43.078125 99.546875 L 75.0625 200.464844 L 162.734375 200.464844 Z M 130.746094 99.546875 " clip-rule="nonzero"/></clipPath><clipPath id="6658852c2f"><path d="M 212.136719 99.546875 L 331.980469 99.546875 L 331.980469 200.464844 L 212.136719 200.464844 Z M 212.136719 99.546875 " clip-rule="nonzero"/></clipPath><clipPath id="e565ac410c"><path d="M 246.296875 99.546875 L 331.921875 99.546875 L 297.765625 200.464844 L 212.136719 200.464844 Z M 246.296875 99.546875 " clip-rule="nonzero"/></clipPath><clipPath id="25be3f87e7"><path d="M 78.230469 208.277344 L 162.988281 208.277344 L 162.988281 275.453125 L 78.230469 275.453125 Z M 78.230469 208.277344 " clip-rule="nonzero"/></clipPath><clipPath id="dfb06a0776"><path d="M 97.628906 208.277344 L 162.734375 208.277344 L 143.335938 275.453125 L 78.230469 275.453125 Z M 97.628906 208.277344 " clip-rule="nonzero"/></clipPath><clipPath id="bd961f0bfc"><path d="M 212.136719 208.277344 L 296.632812 208.277344 L 296.632812 275.453125 L 212.136719 275.453125 Z M 212.136719 208.277344 " clip-rule="nonzero"/></clipPath><clipPath id="09d777ebf8"><path d="M 273.449219 208.277344 L 212.136719 208.277344 L 235.273438 275.453125 L 296.582031 275.453125 Z M 273.449219 208.277344 " clip-rule="nonzero"/></clipPath><clipPath id="52d868017d"><path d="M 170.226562 144.625 L 204.648438 144.625 L 204.648438 178.160156 L 170.226562 178.160156 Z M 170.226562 144.625 " clip-rule="nonzero"/></clipPath><clipPath id="7fda96aab2"><path d="M 170.226562 186.25 L 204.648438 186.25 L 204.648438 219.882812 L 170.226562 219.882812 Z M 170.226562 186.25 " clip-rule="nonzero"/></clipPath><clipPath id="fd43455774"><path d="M 170.226562 227.960938 L 204.648438 227.960938 L 204.648438 261.59375 L 170.226562 261.59375 Z M 170.226562 227.960938 " clip-rule="nonzero"/></clipPath></defs><g clip-path="url(#aa584da460)"><g clip-path="url(#44fc67b7cd)"><path fill="#ffffff" d="M 43.078125 99.546875 L 162.917969 99.546875 L 162.917969 200.464844 L 43.078125 200.464844 Z M 43.078125 99.546875 " fill-opacity="1" fill-rule="nonzero"/></g></g><g clip-path="url(#6658852c2f)"><g clip-path="url(#e565ac410c)"><path fill="#ffffff" d="M 212.136719 99.546875 L 331.980469 99.546875 L 331.980469 200.464844 L 212.136719 200.464844 Z M 212.136719 99.546875 " fill-opacity="1" fill-rule="nonzero"/></g></g><g clip-path="url(#25be3f87e7)"><g clip-path="url(#dfb06a0776)"><path fill="#ffffff" d="M 78.230469 208.277344 L 162.726562 208.277344 L 162.726562 275.453125 L 78.230469 275.453125 Z M 78.230469 208.277344 " fill-opacity="1" fill-rule="nonzero"/></g></g><g clip-path="url(#bd961f0bfc)"><g clip-path="url(#09d777ebf8)"><path fill="#ffffff" d="M 212.136719 208.277344 L 296.632812 208.277344 L 296.632812 275.453125 L 212.136719 275.453125 Z M 212.136719 208.277344 " fill-opacity="1" fill-rule="nonzero"/></g></g><g clip-path="url(#52d868017d)"><path fill="#ffffff" d="M 170.226562 144.625 L 204.679688 144.625 L 204.679688 178.160156 L 170.226562 178.160156 Z M 170.226562 144.625 " fill-opacity="1" fill-rule="nonzero"/></g><g clip-path="url(#7fda96aab2)"><path fill="#ffffff" d="M 170.226562 186.25 L 204.648438 186.25 L 204.648438 219.882812 L 170.226562 219.882812 Z M 170.226562 186.25 " fill-opacity="1" fill-rule="nonzero"/></g><g clip-path="url(#fd43455774)"><path fill="#ffffff" d="M 170.226562 227.960938 L 204.648438 227.960938 L 204.648438 261.59375 L 170.226562 261.59375 Z M 170.226562 227.960938 " fill-opacity="1" fill-rule="nonzero"/></g></svg>